<svg width="376" height="64" viewBox="0 0 376 64" fill="none" xmlns="http://www.w3.org/2000/svg">
<path opacity="0.3" d="M0 27.2041C0 26.0995 0.895431 25.2041 2 25.2041C3.10457 25.2041 4 26.0995 4 27.2041V36.7961C4 37.9007 3.10457 38.7961 2 38.7961C0.895431 38.7961 0 37.9007 0 36.7961V27.2041Z" fill="#D9D9D9"/>
<rect opacity="0.6" x="6" y="10" width="4" height="44" rx="2" fill="#D9D9D9"/>
<rect opacity="0.6" x="12" y="20" width="4" height="24" rx="2" fill="#D9D9D9"/>
<rect x="18" y="22" width="4" height="20" rx="2" fill="#D9D9D9"/>
<rect x="24" y="14" width="4" height="36" rx="2" fill="#D9D9D9"/>
<rect x="30" y="26" width="4" height="12" rx="2" fill="#D9D9D9"/>
<rect x="36" y="25" width="4" height="14" rx="2" fill="#D9D9D9"/>
<rect x="42" y="4" width="4" height="56" rx="2" fill="#D9D9D9"/>
<rect x="48" y="14" width="4" height="36" rx="2" fill="#D9D9D9"/>
<rect x="54" width="4" height="64" rx="2" fill="#D9D9D9"/>
<rect x="60" y="12" width="4" height="40" rx="2" fill="#D9D9D9"/>
<rect x="66" y="4" width="4" height="56" rx="2" fill="#D9D9D9"/>
<rect x="72" y="12" width="4" height="40" rx="2" fill="#D9D9D9"/>
<rect x="78" y="25" width="4" height="14" rx="2" fill="#D9D9D9"/>
<rect x="84" y="29" width="4" height="6" rx="2" fill="#D9D9D9"/>
<rect x="90" y="25" width="4" height="14" rx="2" fill="#D9D9D9"/>
<rect x="96" y="12" width="4" height="40" rx="2" fill="#D9D9D9"/>
<rect x="102" y="22" width="4" height="20" rx="2" fill="#D9D9D9"/>
<rect x="108" y="14" width="4" height="36" rx="2" fill="#D9D9D9"/>
<rect x="114" y="26" width="4" height="12" rx="2" fill="#D9D9D9"/>
<rect x="120" y="25" width="4" height="14" rx="2" fill="#D9D9D9"/>
<rect x="126" y="4" width="4" height="56" rx="2" fill="#D9D9D9"/>
<rect x="132" y="14" width="4" height="36" rx="2" fill="#D9D9D9"/>
<rect x="138" width="4" height="64" rx="2" fill="#D9D9D9"/>
<rect x="144" y="12" width="4" height="40" rx="2" fill="#D9D9D9"/>
<rect x="150" y="4" width="4" height="56" rx="2" fill="#D9D9D9"/>
<rect x="156" y="12" width="4" height="40" rx="2" fill="#D9D9D9"/>
<rect x="162" y="25" width="4" height="14" rx="2" fill="#D9D9D9"/>
<rect x="168" y="29" width="4" height="6" rx="2" fill="#D9D9D9"/>
<rect x="174" y="25" width="4" height="14" rx="2" fill="#D9D9D9"/>
<rect x="180" y="4" width="4" height="56" rx="2" fill="#D9D9D9"/>
<rect x="186" y="14" width="4" height="36" rx="2" fill="#D9D9D9"/>
<rect x="192" width="4" height="64" rx="2" fill="#D9D9D9"/>
<rect x="198" y="23" width="4" height="18" rx="2" fill="#D9D9D9"/>
<rect x="204" y="17" width="4" height="30" rx="2" fill="#D9D9D9"/>
<rect x="210" y="24" width="4" height="16" rx="2" fill="#D9D9D9"/>
<rect x="216" y="17" width="4" height="30" rx="2" fill="#D9D9D9"/>
<rect x="222" y="23" width="4" height="18" rx="2" fill="#D9D9D9"/>
<rect x="228" y="4" width="4" height="56" rx="2" fill="#D9D9D9"/>
<rect x="234" y="14" width="4" height="36" rx="2" fill="#D9D9D9"/>
<rect x="240" width="4" height="64" rx="2" fill="#D9D9D9"/>
<rect x="246" y="12" width="4" height="40" rx="2" fill="#D9D9D9"/>
<rect x="252" y="29" width="4" height="6" rx="2" fill="#D9D9D9"/>
<rect x="258" y="25" width="4" height="14" rx="2" fill="#D9D9D9"/>
<rect x="264" y="12" width="4" height="40" rx="2" fill="#D9D9D9"/>
<rect x="270" y="22" width="4" height="20" rx="2" fill="#D9D9D9"/>
<rect x="276" y="14" width="4" height="36" rx="2" fill="#D9D9D9"/>
<rect x="282" y="26" width="4" height="12" rx="2" fill="#D9D9D9"/>
<rect x="288" y="25" width="4" height="14" rx="2" fill="#D9D9D9"/>
<rect x="294" y="4" width="4" height="56" rx="2" fill="#D9D9D9"/>
<rect x="300" y="14" width="4" height="36" rx="2" fill="#D9D9D9"/>
<rect x="306" width="4" height="64" rx="2" fill="#D9D9D9"/>
<rect x="312" y="12" width="4" height="40" rx="2" fill="#D9D9D9"/>
<rect x="318" y="4" width="4" height="56" rx="2" fill="#D9D9D9"/>
<rect x="324" y="12" width="4" height="40" rx="2" fill="#D9D9D9"/>
<rect x="330" y="25" width="4" height="14" rx="2" fill="#D9D9D9"/>
<rect x="336" y="29" width="4" height="6" rx="2" fill="#D9D9D9"/>
<rect x="342" y="25" width="4" height="14" rx="2" fill="#D9D9D9"/>
<rect x="348" y="12" width="4" height="40" rx="2" fill="#D9D9D9"/>
<rect x="354" y="29" width="4" height="6" rx="2" fill="#D9D9D9"/>
<rect opacity="0.6" x="360" y="17" width="4" height="30" rx="2" fill="#D9D9D9"/>
<rect opacity="0.6" x="366" y="10" width="4" height="44" rx="2" fill="#D9D9D9"/>
<rect opacity="0.3" x="372" y="20" width="4" height="24" rx="2" fill="#D9D9D9"/>
</svg>
