<svg width="21" height="20" viewBox="0 0 21 20" fill="none" xmlns="http://www.w3.org/2000/svg">
<path fill-rule="evenodd" clip-rule="evenodd" d="M14.65 0.500068C14.7056 0.502014 14.752 0.545607 14.7603 0.60374L14.9392 1.85586C15.1534 3.35451 16.0783 4.66778 17.4365 5.39102C17.4754 5.41175 17.5 5.45388 17.5 5.49993C17.5 5.54599 17.4755 5.58812 17.4365 5.60884C16.0783 6.33213 15.1534 7.64544 14.9393 9.14412L14.7604 10.3963C14.7521 10.4544 14.7057 10.498 14.6501 10.4999C14.5945 10.5019 14.5455 10.4616 14.5336 10.4042L14.2773 9.17052C13.9606 7.64661 12.9669 6.33891 11.5644 5.60935C11.525 5.58883 11.5 5.5464 11.5 5.49993C11.5 5.45346 11.525 5.41104 11.5644 5.39052C12.9669 4.66101 13.9606 3.35332 14.2772 1.82943L14.5335 0.595799C14.5454 0.538375 14.5944 0.498121 14.65 0.500068Z" fill="white"/>
<path fill-rule="evenodd" clip-rule="evenodd" d="M18.6 0.500034C18.6371 0.501007 18.668 0.522804 18.6735 0.55187L18.7928 1.17793C18.9356 1.92726 19.5522 2.58389 20.4577 2.94551C20.4836 2.95587 20.5 2.97694 20.5 2.99997C20.5 3.02299 20.4836 3.04406 20.4577 3.05442C19.5522 3.41606 18.9356 4.07272 18.7929 4.82206L18.6736 5.44813C18.6681 5.47719 18.6372 5.49899 18.6001 5.49997C18.563 5.50094 18.5304 5.48081 18.5224 5.4521L18.3515 4.83526C18.1404 4.07331 17.4779 3.41945 16.543 3.05468C16.5167 3.04441 16.5 3.0232 16.5 2.99997C16.5 2.97673 16.5167 2.95552 16.543 2.94526C17.4779 2.5805 18.1404 1.92666 18.3515 1.16472L18.5223 0.547899C18.5303 0.519187 18.5629 0.499061 18.6 0.500034Z" fill="white"/>
<path fill-rule="evenodd" clip-rule="evenodd" d="M12.6647 2.80015C11.8519 1.99623 10.7342 1.5 9.5 1.5C7.01375 1.5 5 3.51375 5 6C5 8.48625 7.01375 10.5 9.5 10.5C10.9453 10.5 12.231 9.81945 13.0542 8.76115C12.2356 7.47038 11.0515 6.39613 9.60738 5.67496C9.54164 5.64213 9.5 5.57424 9.5 5.49989C9.5 5.42554 9.54164 5.35766 9.60739 5.32483C10.8366 4.71102 11.8774 3.84139 12.6647 2.80015ZM0.5 17.25C0.5 14.2575 6.49625 12.75 9.5 12.75C12.5038 12.75 18.5 14.2575 18.5 17.25V19.5H0.5V17.25Z" fill="white"/>
</svg>
