<svg width="25" height="24" viewBox="0 0 25 24" fill="none" xmlns="http://www.w3.org/2000/svg">
<path fill-rule="evenodd" clip-rule="evenodd" d="M15.575 10.875C15.575 11.2892 15.2392 11.625 14.825 11.625H8.82495C8.41074 11.625 8.07495 11.2892 8.07495 10.875C8.07495 10.4608 8.41074 10.125 8.82495 10.125H14.825C15.2392 10.125 15.575 10.4608 15.575 10.875ZM14.825 13.125H8.82495C8.41074 13.125 8.07495 13.4608 8.07495 13.875C8.07495 14.2892 8.41074 14.625 8.82495 14.625H14.825C15.2392 14.625 15.575 14.2892 15.575 13.875C15.575 13.4608 15.2392 13.125 14.825 13.125ZM21.575 12C21.5693 17.1753 17.3753 21.3693 12.2 21.375H4.29401C3.4831 21.374 2.82598 20.7169 2.82495 19.9059V12C2.82495 6.82233 7.02228 2.625 12.2 2.625C17.3776 2.625 21.575 6.82233 21.575 12Z" fill="white"/>
</svg>
