<svg width="25" height="24" viewBox="0 0 25 24" fill="none" xmlns="http://www.w3.org/2000/svg">
<g clip-path="url(#clip0_16_1925)">
<path fill-rule="evenodd" clip-rule="evenodd" d="M15.95 10.5C15.95 10.9142 15.6142 11.25 15.2 11.25H9.19995C8.78574 11.25 8.44995 10.9142 8.44995 10.5C8.44995 10.0858 8.78574 9.75 9.19995 9.75H15.2C15.6142 9.75 15.95 10.0858 15.95 10.5ZM15.2 12.75H9.19995C8.78574 12.75 8.44995 13.0858 8.44995 13.5C8.44995 13.9142 8.78574 14.25 9.19995 14.25H15.2C15.6142 14.25 15.95 13.9142 15.95 13.5C15.95 13.0858 15.6142 12.75 15.2 12.75ZM21.95 11.625C21.9443 16.8003 17.7503 20.9943 12.575 21H4.66901C3.8581 20.999 3.20098 20.3419 3.19995 19.5309V11.625C3.19995 6.44733 7.39728 2.25 12.575 2.25C17.7526 2.25 21.95 6.44733 21.95 11.625ZM20.45 11.625C20.45 7.27576 16.9242 3.75 12.575 3.75C8.22571 3.75 4.69995 7.27576 4.69995 11.625V19.5H12.575C16.9223 19.4953 20.4453 15.9723 20.45 11.625Z" fill="#C283FF"/>
</g>
<defs>
<clipPath id="clip0_16_1925">
<rect width="24" height="24" fill="white" transform="translate(0.199951)"/>
</clipPath>
</defs>
</svg>
