<svg width="24" height="24" viewBox="0 0 24 24" fill="none" xmlns="http://www.w3.org/2000/svg">
<g clip-path="url(#clip0_10_366)">
<path fill-rule="evenodd" clip-rule="evenodd" d="M15.75 10.5C15.75 10.9142 15.4142 11.25 15 11.25H9C8.58579 11.25 8.25 10.9142 8.25 10.5C8.25 10.0858 8.58579 9.75 9 9.75H15C15.4142 9.75 15.75 10.0858 15.75 10.5ZM15 12.75H9C8.58579 12.75 8.25 13.0858 8.25 13.5C8.25 13.9142 8.58579 14.25 9 14.25H15C15.4142 14.25 15.75 13.9142 15.75 13.5C15.75 13.0858 15.4142 12.75 15 12.75ZM21.75 11.625C21.7443 16.8003 17.5503 20.9943 12.375 21H4.46906C3.65815 20.999 3.00103 20.3419 3 19.5309V11.625C3 6.44733 7.19733 2.25 12.375 2.25C17.5527 2.25 21.75 6.44733 21.75 11.625ZM20.25 11.625C20.25 7.27576 16.7242 3.75 12.375 3.75C8.02576 3.75 4.5 7.27576 4.5 11.625V19.5H12.375C16.7223 19.4953 20.2453 15.9723 20.25 11.625Z" fill="#AD94C7"/>
</g>
<defs>
<clipPath id="clip0_10_366">
<rect width="24" height="24" fill="white"/>
</clipPath>
</defs>
</svg>
