<svg width="24" height="24" viewBox="0 0 24 24" fill="none" xmlns="http://www.w3.org/2000/svg">
<path fill-rule="evenodd" clip-rule="evenodd" d="M19.3234 3.05106L3.96914 7.24672C3.44255 7.39483 3.0624 7.85314 3.01418 8.39804C2.96596 8.94294 3.25972 9.46089 3.75212 9.69918L10.8197 13.1594C10.8214 13.1616 10.8234 13.1635 10.8256 13.1652C10.8272 13.1675 10.8291 13.1694 10.8314 13.171L14.3032 20.2503C14.4872 20.636 14.8469 20.9084 15.2681 20.9809C15.6892 21.0534 16.1193 20.917 16.4217 20.6151C16.5829 20.4531 16.6995 20.2523 16.7603 20.0321L20.9415 4.67381C21.0705 4.21603 20.9426 3.72423 20.6069 3.38731C20.2712 3.05039 19.7799 2.92074 19.3216 3.04815L19.3234 3.05106ZM15.4908 19.6842L15.4855 19.6789L12.1242 12.8103L15.4908 9.44375C15.7478 9.18668 15.7478 8.76988 15.4908 8.5128C15.2337 8.25573 14.8169 8.25573 14.5598 8.5128L11.1979 11.8747L4.32989 8.51629L4.31941 8.5128L19.6701 4.31365L15.4908 19.6842Z" fill="white" fill-opacity="0.8"/>
</svg>
