<svg width="20" height="20" viewBox="0 0 20 20" fill="none" xmlns="http://www.w3.org/2000/svg">
<path fill-rule="evenodd" clip-rule="evenodd" d="M15.9655 9.838C15.948 9.7985 15.5245 8.859 14.583 7.9175C13.3285 6.663 11.744 6 10 6C8.256 6 6.67149 6.663 5.417 7.9175C4.4755 8.859 4.05 9.8 4.0345 9.838C3.9885 9.94145 3.9885 10.0595 4.0345 10.163C4.052 10.2025 4.4755 11.1415 5.417 12.083C6.67149 13.337 8.256 14 10 14C11.744 14 13.3285 13.337 14.583 12.083C15.5245 11.1415 15.948 10.2025 15.9655 10.163C16.0115 10.0595 16.0115 9.94145 15.9655 9.838ZM10 13.2C8.461 13.2 7.1165 12.6405 6.0035 11.5375C5.54682 11.0833 5.15829 10.5655 4.85 10C5.15821 9.43447 5.54674 8.91659 6.0035 8.4625C7.1165 7.3595 8.461 6.8 10 6.8C11.539 6.8 12.8835 7.3595 13.9965 8.4625C14.4541 8.91648 14.8434 9.43436 15.1525 10C14.792 10.673 13.2215 13.2 10 13.2ZM10 7.6C8.67451 7.6 7.59999 8.67452 7.59999 10C7.59999 11.3255 8.67451 12.4 10 12.4C11.3255 12.4 12.4 11.3255 12.4 10C12.3986 8.67509 11.3249 7.60138 10 7.6ZM10 11.6C9.11634 11.6 8.4 10.8837 8.4 10C8.4 9.11634 9.11634 8.4 10 8.4C10.8837 8.4 11.6 9.11634 11.6 10C11.6 10.8837 10.8837 11.6 10 11.6Z" fill="white"/>
</svg>
