<svg width="25" height="24" viewBox="0 0 25 24" fill="none" xmlns="http://www.w3.org/2000/svg">
<path fill-rule="evenodd" clip-rule="evenodd" d="M22.55 9C22.5504 8.93027 22.5409 8.86083 22.5219 8.79375L21.1765 4.0875C20.9908 3.44617 20.4052 3.00357 19.7375 3H5.86249C5.19482 3.00357 4.60914 3.44617 4.42343 4.0875L3.07905 8.79375C3.05968 8.86078 3.0499 8.93022 3.04999 9V10.5C3.04999 11.6803 3.60572 12.7918 4.54999 13.5V19.5C4.54999 20.3284 5.22156 21 6.04999 21H19.55C20.3784 21 21.05 20.3284 21.05 19.5V13.5C21.9943 12.7918 22.55 11.6803 22.55 10.5V9ZM19.55 19.5H6.04999V14.175C6.29689 14.2248 6.54812 14.2499 6.79999 14.25C7.98033 14.25 9.09178 13.6943 9.79999 12.75C10.5082 13.6943 11.6196 14.25 12.8 14.25C13.9803 14.25 15.0918 13.6943 15.8 12.75C16.5082 13.6943 17.6196 14.25 18.8 14.25C19.0519 14.2499 19.3031 14.2248 19.55 14.175V19.5Z" fill="white"/>
</svg>
