<svg width="24" height="24" viewBox="0 0 24 24" fill="none" xmlns="http://www.w3.org/2000/svg">
<g clip-path="url(#clip0_42_140)">
<path fill-rule="evenodd" clip-rule="evenodd" d="M15.75 21C15.75 21.4142 15.4142 21.75 15 21.75H9C8.58579 21.75 8.25 21.4142 8.25 21C8.25 20.5858 8.58579 20.25 9 20.25H15C15.4142 20.25 15.75 20.5858 15.75 21ZM20.7984 18C20.5335 18.4668 20.0367 18.7537 19.5 18.75H4.5C3.9633 18.7493 3.46789 18.4619 3.20086 17.9963C2.93383 17.5308 2.93589 16.958 3.20625 16.4944C3.72656 15.5981 4.5 13.0631 4.5 9.75C4.5 5.60786 7.85786 2.25 12 2.25C16.1421 2.25 19.5 5.60786 19.5 9.75C19.5 13.0622 20.2744 15.5981 20.7947 16.4944C21.0678 16.9588 21.0689 17.5345 20.7975 18H20.7984ZM19.5 17.25C18.7753 16.0059 18 13.1297 18 9.75C18 6.43629 15.3137 3.75 12 3.75C8.68629 3.75 6 6.43629 6 9.75C6 13.1306 5.22375 16.0069 4.5 17.25H19.5Z" fill="white"/>
</g>
<defs>
<clipPath id="clip0_42_140">
<rect width="24" height="24" fill="white"/>
</clipPath>
</defs>
</svg>
