<svg width="24" height="24" viewBox="0 0 24 24" fill="none" xmlns="http://www.w3.org/2000/svg">
<path fill-rule="evenodd" clip-rule="evenodd" d="M13.8237 5.38961H5.55267V18.7965H18.9595V8.39985L17.6095 7.99485V17.4465H6.90267V6.73961H13.8237V5.38961Z" fill="white"/>
<path d="M5.08678 8.36893H2.85229V21.7758H16.2592V19.5413H14.9092V20.4258H4.20229V9.71893H5.08678V8.36893Z" fill="white"/>
<path fill-rule="evenodd" clip-rule="evenodd" d="M20.7829 3.78207L15.6622 2.24587C15.5072 2.19933 15.3393 2.22883 15.2094 2.32542C15.0796 2.42201 15.003 2.57432 15.0029 2.73617V9.66575C13.9222 8.69912 12.3128 8.61961 11.1421 9.475C9.97137 10.3304 9.55799 11.8878 10.1504 13.2112C10.7429 14.5346 12.1799 15.2636 13.5977 14.9602C15.0155 14.6567 16.0282 13.4033 16.0271 11.9534V6.49668L20.4885 7.8351C20.6435 7.88163 20.8114 7.85214 20.9413 7.75555C21.0712 7.65896 21.1477 7.50665 21.1478 7.34479V4.27238C21.1477 4.04633 20.9994 3.84706 20.7829 3.78207Z" fill="white"/>
</svg>
