<svg width="25" height="24" viewBox="0 0 25 24" fill="none" xmlns="http://www.w3.org/2000/svg">
<path fill-rule="evenodd" clip-rule="evenodd" d="M22.0488 20.2427C20.6209 17.7743 18.4206 16.0043 15.8528 15.1652C18.4636 13.611 19.7142 10.5041 18.9082 7.57462C18.1022 4.64514 15.4383 2.61517 12.4 2.61517C9.36167 2.61517 6.69779 4.64514 5.89182 7.57462C5.08585 10.5041 6.33645 13.611 8.94719 15.1652C6.37938 16.0033 4.17907 17.7733 2.75125 20.2427C2.60871 20.4752 2.60353 20.7666 2.73773 21.004C2.87194 21.2413 3.12438 21.3871 3.39703 21.3848C3.66968 21.3825 4.39999 21.3677 4.39999 21.3677C4.39999 21.3677 8.93782 21.3848 12.4 21.3848C15.8622 21.3848 20.4 21.3677 20.4 21.3677C20.4 21.3677 21.1303 21.3825 21.403 21.3848C21.6756 21.3871 21.9281 21.2413 22.0623 21.004C22.1965 20.7666 22.1913 20.4752 22.0488 20.2427Z" fill="white"/>
</svg>
